<?xml version="1.0" standalone="no"?>
<!DOCTYPE svg PUBLIC "-//W3C//DTD SVG 20010904//EN"
 "http://www.w3.org/TR/2001/REC-SVG-20010904/DTD/svg10.dtd">
<svg version="1.0" xmlns="http://www.w3.org/2000/svg"
 width="500.000000pt" height="500.000000pt" viewBox="0 0 500.000000 500.000000"
 preserveAspectRatio="xMidYMid meet">

<g transform="translate(0.000000,500.000000) scale(0.100000,-0.100000)"
fill="#000000" stroke="none">
<path d="M2315 4993 c-397 -36 -800 -166 -1113 -361 -334 -208 -642 -519 -842
-852 -309 -512 -420 -1142 -309 -1741 93 -505 337 -961 705 -1319 207 -202
394 -334 649 -460 243 -120 495 -199 760 -237 170 -24 506 -24 680 0 808 115
1518 617 1883 1333 114 225 187 439 239 703 26 129 27 151 27 441 0 290 -1
312 -27 441 -103 524 -331 961 -688 1318 -426 426 -947 670 -1558 731 -97 9
-316 11 -406 3z m535 -98 c555 -86 1022 -327 1402 -724 359 -374 580 -833 654
-1356 22 -162 22 -468 0 -630 -49 -347 -164 -668 -343 -957 -188 -305 -478
-594 -786 -786 -268 -168 -598 -287 -937 -339 -160 -24 -510 -24 -670 0 -268
42 -479 108 -725 227 -706 343 -1186 987 -1326 1777 -27 151 -37 472 -20 634
88 842 598 1570 1353 1934 283 136 530 204 863 239 86 9 434 -3 535 -19z"/>
<path d="M3020 3814 c-213 -39 -356 -115 -455 -241 -65 -83 -88 -160 -82 -271
3 -48 8 -98 11 -112 6 -24 -8 -33 -288 -195 l-295 -170 637 -3 c697 -2 746 1
873 55 151 63 257 156 313 273 29 60 31 73 31 170 0 100 -2 109 -34 175 -93
188 -314 311 -576 320 -60 2 -121 2 -135 -1z"/>
<path d="M1197 3110 c-224 -57 -356 -291 -318 -564 25 -177 101 -326 236 -462
143 -143 272 -200 439 -192 110 5 180 33 255 103 l49 46 287 -167 c157 -91
288 -165 290 -163 3 4 -522 926 -606 1062 -86 142 -237 271 -370 316 -72 25
-205 35 -262 21z"/>
<path d="M1913 2753 c2 -5 134 -234 292 -511 248 -432 290 -500 300 -485 9 13
526 898 582 996 2 4 -262 7 -587 7 -325 0 -589 -3 -587 -7z"/>
<path d="M2827 2188 c-169 -289 -318 -550 -332 -580 -62 -135 -83 -326 -50
-453 60 -228 256 -363 473 -325 211 37 396 187 507 413 55 112 74 184 82 302
10 151 -43 309 -132 395 -47 45 -143 98 -191 106 l-44 6 -2 331 -3 331 -308
-526z"/>
</g>
</svg>
